<?xml version="1.0" encoding="UTF-8" standalone="no"?>
<!DOCTYPE svg PUBLIC "-//W3C//DTD SVG 1.0//EN"
 "http://www.w3.org/TR/2001/REC-SVG-20010904/DTD/svg10.dtd" [
 <!ATTLIST svg xmlns:xlink CDATA #FIXED "http://www.w3.org/1999/xlink">
]>
<!-- Generated by Graphviz version 2.12 (Fri Jan 10 10:42:59 UTC 2014)
     For user: (root) root -->
<!-- Title: G Pages: 1 -->
<svg width="7.44in" height="13.21in"
 xmlns="http://www.w3.org/2000/svg" xmlns:xlink="http://www.w3.org/1999/xlink">
<g id="graph0" class="graph" transform="scale(1.33333 1.33333) rotate(0) translate(4 947)">
<title>G</title>
<polygon style="fill:white;stroke:white;" points="-4,4 -4,-947 532,-947 532,4 -4,4"/>
<g id="cluster2" class="cluster"><title>cluster_Global</title>
<polyline style="fill:none;stroke:gray;" points="192,-160 8,-160 "/>
<path style="fill:none;stroke:gray;" d="M8,-160C2,-160 -4,-166 -4,-172"/>
<polyline style="fill:none;stroke:gray;" points="-4,-172 -4,-935 "/>
<path style="fill:none;stroke:gray;" d="M-4,-935C-4,-941 2,-947 8,-947"/>
<polyline style="fill:none;stroke:gray;" points="8,-947 192,-947 "/>
<path style="fill:none;stroke:gray;" d="M192,-947C198,-947 204,-941 204,-935"/>
<polyline style="fill:none;stroke:gray;" points="204,-935 204,-172 "/>
<path style="fill:none;stroke:gray;" d="M204,-172C204,-166 198,-160 192,-160"/>
<text text-anchor="middle" x="362" y="-921" style="font-family:Nimbus Roman No9 L;font-weight:regular;font-size:8.91pt;fill:gray;">Global</text>
</g>
<!-- \\Uiowa_auth_model -->
<g id="node2" class="node"><title>\\Uiowa_auth_model</title>
<polygon style="fill:none;stroke:black;" points="505.88,-906 404.12,-906 404.12,-870 505.88,-870 505.88,-906"/>
<text text-anchor="middle" x="455" y="-884" style="font-family:Nimbus Roman No9 L;font-weight:regular;font-size:8.91pt;">Uiowa_auth_model</text>
</g>
<!-- \\MY_Model -->
<g id="node4" class="node"><title>\\MY_Model</title>
<polygon style="fill:none;stroke:black;" points="287.968,-798 220.032,-798 220.032,-762 287.968,-762 287.968,-798"/>
<text text-anchor="middle" x="254" y="-776" style="font-family:Nimbus Roman No9 L;font-weight:regular;font-size:8.91pt;">MY_Model</text>
</g>
<!-- \\Uiowa_auth_model&#45;&gt;\\MY_Model -->
<g id="edge3" class="edge"><title>\\Uiowa_auth_model&#45;&gt;\\MY_Model</title>
<path style="fill:none;stroke:black;" d="M416,-870C410,-867 404,-864 398,-861 362,-842 322,-820 294,-803"/>
<polygon style="fill:none;stroke:black;" points="295.441,-799.797 285,-798 292.042,-805.916 295.441,-799.797"/>
</g>
<!-- \\Variations -->
<g id="node3" class="node"><title>\\Variations</title>
<polygon style="fill:none;stroke:black;" points="485.909,-636 424.091,-636 424.091,-600 485.909,-600 485.909,-636"/>
<text text-anchor="middle" x="455" y="-614" style="font-family:Nimbus Roman No9 L;font-weight:regular;font-size:8.91pt;">Variations</text>
</g>
<!-- \\MY_Controller -->
<g id="node6" class="node"><title>\\MY_Controller</title>
<polygon style="fill:none;stroke:black;" points="296.216,-501 211.784,-501 211.784,-465 296.216,-465 296.216,-501"/>
<text text-anchor="middle" x="254" y="-479" style="font-family:Nimbus Roman No9 L;font-weight:regular;font-size:8.91pt;">MY_Controller</text>
</g>
<!-- \\Variations&#45;&gt;\\MY_Controller -->
<g id="edge5" class="edge"><title>\\Variations&#45;&gt;\\MY_Controller</title>
<path style="fill:none;stroke:black;" d="M424,-604C415,-600 406,-596 398,-591 356,-566 312,-531 283,-508"/>
<polygon style="fill:none;stroke:black;" points="284.831,-504.951 275,-501 280.221,-510.219 284.831,-504.951"/>
</g>
<!-- \\CI_Model -->
<g id="node21" class="node"><title>\\CI_Model</title>
<ellipse style="fill:none;stroke:black;" cx="55" cy="-780" rx="43.855" ry="18"/>
<text text-anchor="middle" x="55" y="-774" style="font-family:Nimbus Roman No9 L;font-weight:regular;font-size:11.34pt;fill:gray;">\CI_Model</text>
</g>
<!-- \\MY_Model&#45;&gt;\\CI_Model -->
<g id="edge7" class="edge"><title>\\MY_Model&#45;&gt;\\CI_Model</title>
<path style="fill:none;stroke:black;" d="M220,-780C190,-780 145,-780 109,-780"/>
<polygon style="fill:none;stroke:black;" points="109,-776.5 99,-780 109,-783.5 109,-776.5"/>
</g>
<!-- \\API_model -->
<g id="node5" class="node"><title>\\API_model</title>
<polygon style="fill:none;stroke:black;" points="487.859,-852 422.141,-852 422.141,-816 487.859,-816 487.859,-852"/>
<text text-anchor="middle" x="455" y="-830" style="font-family:Nimbus Roman No9 L;font-weight:regular;font-size:8.91pt;">API_model</text>
</g>
<!-- \\API_model&#45;&gt;\\MY_Model -->
<g id="edge9" class="edge"><title>\\API_model&#45;&gt;\\MY_Model</title>
<path style="fill:none;stroke:black;" d="M421,-825C387,-816 335,-802 298,-792"/>
<polygon style="fill:none;stroke:black;" points="298.584,-788.521 288,-789 296.573,-795.226 298.584,-788.521"/>
</g>
<!-- \\CI_Controller -->
<g id="node24" class="node"><title>\\CI_Controller</title>
<ellipse style="fill:none;stroke:black;" cx="55" cy="-483" rx="53.8536" ry="18"/>
<text text-anchor="middle" x="55" y="-477" style="font-family:Nimbus Roman No9 L;font-weight:regular;font-size:11.34pt;fill:gray;">\CI_Controller</text>
</g>
<!-- \\MY_Controller&#45;&gt;\\CI_Controller -->
<g id="edge11" class="edge"><title>\\MY_Controller&#45;&gt;\\CI_Controller</title>
<path style="fill:none;stroke:black;" d="M212,-483C185,-483 150,-483 120,-483"/>
<polygon style="fill:none;stroke:black;" points="120,-479.5 110,-483 120,-486.5 120,-479.5"/>
</g>
<!-- \\Pages_model -->
<g id="node7" class="node"><title>\\Pages_model</title>
<polygon style="fill:none;stroke:black;" points="491.83,-798 418.17,-798 418.17,-762 491.83,-762 491.83,-798"/>
<text text-anchor="middle" x="455" y="-776" style="font-family:Nimbus Roman No9 L;font-weight:regular;font-size:8.91pt;">Pages_model</text>
</g>
<!-- \\Pages_model&#45;&gt;\\MY_Model -->
<g id="edge13" class="edge"><title>\\Pages_model&#45;&gt;\\MY_Model</title>
<path style="fill:none;stroke:black;" d="M418,-780C384,-780 334,-780 298,-780"/>
<polygon style="fill:none;stroke:black;" points="298,-776.5 288,-780 298,-783.5 298,-776.5"/>
</g>
<!-- \\Migration_Init -->
<g id="node8" class="node"><title>\\Migration_Init</title>
<polygon style="fill:none;stroke:black;" points="494.886,-312 415.114,-312 415.114,-276 494.886,-276 494.886,-312"/>
<text text-anchor="middle" x="455" y="-290" style="font-family:Nimbus Roman No9 L;font-weight:regular;font-size:8.91pt;">Migration_Init</text>
</g>
<!-- \\CI_Migration -->
<g id="node27" class="node"><title>\\CI_Migration</title>
<ellipse style="fill:none;stroke:black;" cx="254" cy="-134" rx="53.0752" ry="18"/>
<text text-anchor="middle" x="254" y="-128" style="font-family:Nimbus Roman No9 L;font-weight:regular;font-size:11.34pt;fill:gray;">\CI_Migration</text>
</g>
<!-- \\Migration_Init&#45;&gt;\\CI_Migration -->
<g id="edge15" class="edge"><title>\\Migration_Init&#45;&gt;\\CI_Migration</title>
<path style="fill:none;stroke:black;" d="M415,-278C409,-275 403,-271 398,-267 353,-229 372,-192 326,-156 321,-152 315,-149 310,-147"/>
<polygon style="fill:none;stroke:black;" points="310.585,-143.464 300,-143 307.985,-149.964 310.585,-143.464"/>
</g>
<!-- \\Pages -->
<g id="node9" class="node"><title>\\Pages</title>
<polygon style="fill:none;stroke:black;" points="482,-582 428,-582 428,-546 482,-546 482,-582"/>
<text text-anchor="middle" x="455" y="-560" style="font-family:Nimbus Roman No9 L;font-weight:regular;font-size:8.91pt;">Pages</text>
</g>
<!-- \\Pages&#45;&gt;\\MY_Controller -->
<g id="edge17" class="edge"><title>\\Pages&#45;&gt;\\MY_Controller</title>
<path style="fill:none;stroke:black;" d="M428,-553C397,-540 345,-520 306,-504"/>
<polygon style="fill:none;stroke:black;" points="306.585,-500.464 296,-500 303.985,-506.964 306.585,-500.464"/>
</g>
<!-- \\Auth_model -->
<g id="node10" class="node"><title>\\Auth_model</title>
<polygon style="fill:none;stroke:black;" points="489.997,-258 420.003,-258 420.003,-222 489.997,-222 489.997,-258"/>
<text text-anchor="middle" x="455" y="-236" style="font-family:Nimbus Roman No9 L;font-weight:regular;font-size:8.91pt;">Auth_model</text>
</g>
<!-- \\Ion_auth_model -->
<g id="node30" class="node"><title>\\Ion_auth_model</title>
<ellipse style="fill:none;stroke:black;" cx="254" cy="-80" rx="60.9623" ry="18"/>
<text text-anchor="middle" x="254" y="-74" style="font-family:Nimbus Roman No9 L;font-weight:regular;font-size:11.34pt;fill:gray;">\Ion_auth_model</text>
</g>
<!-- \\Auth_model&#45;&gt;\\Ion_auth_model -->
<g id="edge19" class="edge"><title>\\Auth_model&#45;&gt;\\Ion_auth_model</title>
<path style="fill:none;stroke:black;" d="M419,-227C412,-223 404,-219 398,-213 354,-176 370,-143 326,-107 321,-103 315,-99 309,-96"/>
<polygon style="fill:none;stroke:black;" points="309.585,-92.4643 299,-92 306.985,-98.9636 309.585,-92.4643"/>
</g>
<!-- \\MY_Form_validation -->
<g id="node11" class="node"><title>\\MY_Form_validation</title>
<polygon style="fill:none;stroke:black;" points="510.775,-204 399.225,-204 399.225,-168 510.775,-168 510.775,-204"/>
<text text-anchor="middle" x="455" y="-182" style="font-family:Nimbus Roman No9 L;font-weight:regular;font-size:8.91pt;">MY_Form_validation</text>
</g>
<!-- \\CI_Form_validation -->
<g id="node32" class="node"><title>\\CI_Form_validation</title>
<ellipse style="fill:none;stroke:black;" cx="254" cy="-26" rx="72.2428" ry="18"/>
<text text-anchor="middle" x="254" y="-20" style="font-family:Nimbus Roman No9 L;font-weight:regular;font-size:11.34pt;fill:gray;">\CI_Form_validation</text>
</g>
<!-- \\MY_Form_validation&#45;&gt;\\CI_Form_validation -->
<g id="edge21" class="edge"><title>\\MY_Form_validation&#45;&gt;\\CI_Form_validation</title>
<path style="fill:none;stroke:black;" d="M441,-168C420,-140 375,-86 326,-53 321,-50 315,-47 309,-44"/>
<polygon style="fill:none;stroke:black;" points="310.56,-40.8631 300,-40 307.717,-47.2598 310.56,-40.8631"/>
</g>
<!-- \\Genes -->
<g id="node12" class="node"><title>\\Genes</title>
<polygon style="fill:none;stroke:black;" points="482,-528 428,-528 428,-492 482,-492 482,-528"/>
<text text-anchor="middle" x="455" y="-506" style="font-family:Nimbus Roman No9 L;font-weight:regular;font-size:8.91pt;">Genes</text>
</g>
<!-- \\Genes&#45;&gt;\\MY_Controller -->
<g id="edge23" class="edge"><title>\\Genes&#45;&gt;\\MY_Controller</title>
<path style="fill:none;stroke:black;" d="M428,-506C397,-502 345,-495 306,-490"/>
<polygon style="fill:none;stroke:black;" points="306.299,-486.512 296,-489 305.602,-493.478 306.299,-486.512"/>
</g>
<!-- \\Variations_model -->
<g id="node13" class="node"><title>\\Variations_model</title>
<polygon style="fill:none;stroke:black;" points="501.908,-744 408.092,-744 408.092,-708 501.908,-708 501.908,-744"/>
<text text-anchor="middle" x="455" y="-722" style="font-family:Nimbus Roman No9 L;font-weight:regular;font-size:8.91pt;">Variations_model</text>
</g>
<!-- \\Variations_model&#45;&gt;\\MY_Model -->
<g id="edge25" class="edge"><title>\\Variations_model&#45;&gt;\\MY_Model</title>
<path style="fill:none;stroke:black;" d="M407,-739C374,-748 330,-760 298,-768"/>
<polygon style="fill:none;stroke:black;" points="296.573,-764.774 288,-771 298.584,-771.479 296.573,-764.774"/>
</g>
<!-- \\Auth -->
<g id="node14" class="node"><title>\\Auth</title>
<polygon style="fill:none;stroke:black;" points="482,-474 428,-474 428,-438 482,-438 482,-474"/>
<text text-anchor="middle" x="455" y="-452" style="font-family:Nimbus Roman No9 L;font-weight:regular;font-size:8.91pt;">Auth</text>
</g>
<!-- \\Auth&#45;&gt;\\MY_Controller -->
<g id="edge27" class="edge"><title>\\Auth&#45;&gt;\\MY_Controller</title>
<path style="fill:none;stroke:black;" d="M428,-460C397,-464 345,-471 306,-476"/>
<polygon style="fill:none;stroke:black;" points="305.602,-472.522 296,-477 306.299,-479.488 305.602,-472.522"/>
</g>
<!-- \\Email -->
<g id="node15" class="node"><title>\\Email</title>
<polygon style="fill:none;stroke:black;" points="482,-420 428,-420 428,-384 482,-384 482,-420"/>
<text text-anchor="middle" x="455" y="-398" style="font-family:Nimbus Roman No9 L;font-weight:regular;font-size:8.91pt;">Email</text>
</g>
<!-- \\Email&#45;&gt;\\MY_Controller -->
<g id="edge29" class="edge"><title>\\Email&#45;&gt;\\MY_Controller</title>
<path style="fill:none;stroke:black;" d="M428,-415C396,-429 345,-453 326,-461 319,-463 313,-465 306,-468"/>
<polygon style="fill:none;stroke:black;" points="304.573,-464.774 296,-471 306.584,-471.479 304.573,-464.774"/>
</g>
<!-- \\API -->
<g id="node16" class="node"><title>\\API</title>
<polygon style="fill:none;stroke:black;" points="482,-366 428,-366 428,-330 482,-330 482,-366"/>
<text text-anchor="middle" x="455" y="-344" style="font-family:Nimbus Roman No9 L;font-weight:regular;font-size:8.91pt;">API</text>
</g>
<!-- \\API&#45;&gt;\\MY_Controller -->
<g id="edge31" class="edge"><title>\\API&#45;&gt;\\MY_Controller</title>
<path style="fill:none;stroke:black;" d="M428,-358C418,-362 407,-368 398,-375 358,-405 367,-433 326,-461 320,-465 313,-468 306,-471"/>
<polygon style="fill:none;stroke:black;" points="304.573,-467.774 296,-474 306.584,-474.479 304.573,-467.774"/>
</g>
<!-- \\Genes_model -->
<g id="node17" class="node"><title>\\Genes_model</title>
<polygon style="fill:none;stroke:black;" points="493.241,-690 416.759,-690 416.759,-654 493.241,-654 493.241,-690"/>
<text text-anchor="middle" x="455" y="-668" style="font-family:Nimbus Roman No9 L;font-weight:regular;font-size:8.91pt;">Genes_model</text>
</g>
<!-- \\Genes_model&#45;&gt;\\MY_Model -->
<g id="edge33" class="edge"><title>\\Genes_model&#45;&gt;\\MY_Model</title>
<path style="fill:none;stroke:black;" d="M417,-689C410,-693 404,-696 398,-699 362,-717 322,-740 293,-757"/>
<polygon style="fill:none;stroke:black;" points="291.042,-754.084 284,-762 294.441,-760.203 291.042,-754.084"/>
</g>
</g>
</svg>
